<svg xmlns="http://www.w3.org/2000/svg" xmlns:xlink="http://www.w3.org/1999/xlink" version="1.1" x="0px" y="0px" viewBox="0 0 100 125" enable-background="new 0 0 100 100" xml:space="preserve"><g><path d="M95,77.2c0,2.3-1.9,4.2-4.2,4.2c-2.3,0-4.2-1.9-4.2-4.2c0-2.3,1.9-4.2,4.2-4.2C93.1,73,95,74.8,95,77.2z"/><path d="M95,63.6c0,2.3-1.9,4.2-4.2,4.2c-2.3,0-4.2-1.9-4.2-4.2c0-2.3,1.9-4.2,4.2-4.2C93.1,59.4,95,61.3,95,63.6z"/><path d="M95,36.4c0,2.3-1.9,4.2-4.2,4.2c-2.3,0-4.2-1.9-4.2-4.2s1.9-4.2,4.2-4.2C93.1,32.2,95,34.1,95,36.4z"/><path d="M95,90.8c0,2.3-1.9,4.2-4.2,4.2c-2.3,0-4.2-1.9-4.2-4.2c0-2.3,1.9-4.2,4.2-4.2C93.1,86.5,95,88.4,95,90.8z"/><path d="M95,50c0,2.3-1.9,4.2-4.2,4.2c-2.3,0-4.2-1.9-4.2-4.2c0-2.3,1.9-4.2,4.2-4.2C93.1,45.8,95,47.7,95,50z"/><path d="M81.4,50c0,2.3-1.9,4.2-4.2,4.2c-2.3,0-4.2-1.9-4.2-4.2c0-2.3,1.9-4.2,4.2-4.2C79.5,45.8,81.4,47.7,81.4,50z"/><path d="M81.4,77.2c0,2.3-1.9,4.2-4.2,4.2c-2.3,0-4.2-1.9-4.2-4.2c0-2.3,1.9-4.2,4.2-4.2C79.5,73,81.4,74.8,81.4,77.2z"/><path d="M81.4,90.8c0,2.3-1.9,4.2-4.2,4.2c-2.3,0-4.2-1.9-4.2-4.2c0-2.3,1.9-4.2,4.2-4.2C79.5,86.5,81.4,88.4,81.4,90.8z"/><path d="M81.4,63.6c0,2.3-1.9,4.2-4.2,4.2c-2.3,0-4.2-1.9-4.2-4.2c0-2.3,1.9-4.2,4.2-4.2C79.5,59.4,81.4,61.3,81.4,63.6z"/><path d="M13.5,63.6c0,2.3-1.9,4.2-4.2,4.2c-2.3,0-4.2-1.9-4.2-4.2c0-2.3,1.9-4.2,4.2-4.2C11.6,59.4,13.5,61.3,13.5,63.6z"/><path d="M54.2,77.2c0,2.3-1.9,4.2-4.2,4.2c-2.3,0-4.2-1.9-4.2-4.2c0-2.3,1.9-4.2,4.2-4.2C52.3,73,54.2,74.8,54.2,77.2z"/><path d="M13.5,22.8c0,2.3-1.9,4.2-4.2,4.2C6.9,27,5,25.1,5,22.8c0-2.3,1.9-4.2,4.2-4.2C11.6,18.6,13.5,20.5,13.5,22.8z"/><path d="M54.2,22.8c0,2.3-1.9,4.2-4.2,4.2c-2.3,0-4.2-1.9-4.2-4.2c0-2.3,1.9-4.2,4.2-4.2C52.3,18.6,54.2,20.5,54.2,22.8z"/><path d="M54.2,90.8c0,2.3-1.9,4.2-4.2,4.2c-2.3,0-4.2-1.9-4.2-4.2c0-2.3,1.9-4.2,4.2-4.2C52.3,86.5,54.2,88.4,54.2,90.8z"/><path d="M13.5,50c0,2.3-1.9,4.2-4.2,4.2C6.9,54.2,5,52.3,5,50c0-2.3,1.9-4.2,4.2-4.2C11.6,45.8,13.5,47.7,13.5,50z"/><path d="M40.6,9.2c0,2.3-1.9,4.2-4.2,4.2c-2.3,0-4.2-1.9-4.2-4.2c0-2.3,1.9-4.2,4.2-4.2C38.7,5,40.6,6.9,40.6,9.2z"/><path d="M13.5,9.2c0,2.3-1.9,4.2-4.2,4.2C6.9,13.5,5,11.6,5,9.2C5,6.9,6.9,5,9.2,5C11.6,5,13.5,6.9,13.5,9.2z"/><path d="M27,36.4c0,2.3-1.9,4.2-4.2,4.2c-2.3,0-4.2-1.9-4.2-4.2s1.9-4.2,4.2-4.2C25.2,32.2,27,34.1,27,36.4z"/><path d="M67.8,77.2c0,2.3-1.9,4.2-4.2,4.2s-4.2-1.9-4.2-4.2c0-2.3,1.9-4.2,4.2-4.2S67.8,74.8,67.8,77.2z"/><path d="M40.6,90.8c0,2.3-1.9,4.2-4.2,4.2c-2.3,0-4.2-1.9-4.2-4.2c0-2.3,1.9-4.2,4.2-4.2C38.7,86.5,40.6,88.4,40.6,90.8z"/><path d="M67.8,9.2c0,2.3-1.9,4.2-4.2,4.2s-4.2-1.9-4.2-4.2c0-2.3,1.9-4.2,4.2-4.2S67.8,6.9,67.8,9.2z"/><path d="M67.8,63.6c0,2.3-1.9,4.2-4.2,4.2s-4.2-1.9-4.2-4.2c0-2.3,1.9-4.2,4.2-4.2S67.8,61.3,67.8,63.6z"/><path d="M54.2,9.2c0,2.3-1.9,4.2-4.2,4.2c-2.3,0-4.2-1.9-4.2-4.2C45.8,6.9,47.7,5,50,5C52.3,5,54.2,6.9,54.2,9.2z"/><path d="M67.8,90.8c0,2.3-1.9,4.2-4.2,4.2s-4.2-1.9-4.2-4.2c0-2.3,1.9-4.2,4.2-4.2S67.8,88.4,67.8,90.8z"/><path d="M40.6,36.4c0,2.3-1.9,4.2-4.2,4.2c-2.3,0-4.2-1.9-4.2-4.2s1.9-4.2,4.2-4.2C38.7,32.2,40.6,34.1,40.6,36.4z"/><path d="M13.5,36.4c0,2.3-1.9,4.2-4.2,4.2c-2.3,0-4.2-1.9-4.2-4.2s1.9-4.2,4.2-4.2C11.6,32.2,13.5,34.1,13.5,36.4z"/><path d="M27,9.2c0,2.3-1.9,4.2-4.2,4.2c-2.3,0-4.2-1.9-4.2-4.2c0-2.3,1.9-4.2,4.2-4.2C25.2,5,27,6.9,27,9.2z"/><path d="M40.6,22.8c0,2.3-1.9,4.2-4.2,4.2c-2.3,0-4.2-1.9-4.2-4.2c0-2.3,1.9-4.2,4.2-4.2C38.7,18.6,40.6,20.5,40.6,22.8z"/><path d="M27,22.8c0,2.3-1.9,4.2-4.2,4.2c-2.3,0-4.2-1.9-4.2-4.2c0-2.3,1.9-4.2,4.2-4.2C25.2,18.6,27,20.5,27,22.8z"/><path d="M27,50c0,2.3-1.9,4.2-4.2,4.2c-2.3,0-4.2-1.9-4.2-4.2c0-2.3,1.9-4.2,4.2-4.2C25.2,45.8,27,47.7,27,50z"/></g><text x="0" y="115" fill="#000000" font-size="5px" font-weight="bold" font-family="'Helvetica Neue', Helvetica, Arial-Unicode, Arial, Sans-serif">Created by Zach Bogart</text><text x="0" y="120" fill="#000000" font-size="5px" font-weight="bold" font-family="'Helvetica Neue', Helvetica, Arial-Unicode, Arial, Sans-serif">from the Noun Project</text></svg>