<svg xmlns="http://www.w3.org/2000/svg" xmlns:xlink="http://www.w3.org/1999/xlink" version="1.1" x="0px" y="0px" viewBox="0 0 100 125" style="enable-background:new 0 0 100 100;" xml:space="preserve"><g><path d="M19,79h59V33H19V79z M21,35h55v39.1L60,62.8l-9.9,5.9L34,52.6l-13,13V35z M21,67l0.7,0.7L34,55.4l15.8,15.8L60,65.2   l16,11.3V77H21V67z"/><polygon points="29,30 31,30 31,27 86,27 86,69 81,69 81,71 88,71 88,25 29,25  "/><path d="M59,59c4.4,0,8-3.6,8-8s-3.6-8-8-8s-8,3.6-8,8S54.6,59,59,59z M59,45c3.3,0,6,2.7,6,6s-2.7,6-6,6s-6-2.7-6-6S55.7,45,59,45   z"/></g><text x="0" y="115" fill="#000000" font-size="5px" font-weight="bold" font-family="'Helvetica Neue', Helvetica, Arial-Unicode, Arial, Sans-serif">Created by Trident</text><text x="0" y="120" fill="#000000" font-size="5px" font-weight="bold" font-family="'Helvetica Neue', Helvetica, Arial-Unicode, Arial, Sans-serif">from the Noun Project</text></svg>