<svg xmlns:inkscape="http://www.inkscape.org/namespaces/inkscape" xmlns:sodipodi="http://sodipodi.sourceforge.net/DTD/sodipodi-0.dtd" xmlns="http://www.w3.org/2000/svg" xmlns:svg="http://www.w3.org/2000/svg" version="1.1" x="0px" y="0px" viewBox="0 0 100 125" style="enable-background:new 0 0 100 100;" xml:space="preserve"><path style="color:#000000;" d="M 21.0742,51.504068 2.5039,62.224778 a 1.0001,1.0001 0 0 0 -0.5,0.86523 v 21.44727 a 1.0001,1.0001 0 0 0 0.5,0.86718 l 18.5703,10.71875 a 1.0001,1.0001 0 0 0 1,0 l 18.5723,-10.71875 a 1.0001,1.0001 0 0 0 0.5,-0.86718 v -21.44727 a 1.0001,1.0001 0 0 0 -0.5,-0.86523 L 22.0742,51.504068 a 1.0001,1.0001 0 0 0 -1,0 z m 0.5,2.02149 17.5723,10.14062 v 20.29493 L 21.5742,94.103678 4.0039,83.961108 v -20.29297 z" fill="#000000" stroke-linecap="round" stroke-linejoin="round" stroke-miterlimit="10"/><path style="color:#000000;" d="M 21.0723,51.500168 2.5,62.220868 a 1.0001,1.0001 0 0 0 0,1.73242 l 18.5723,10.72071 a 1.0001,1.0001 0 0 0 1,0 l 18.5781,-10.72071 a 1.0001,1.0001 0 0 0 0,-1.73242 l -18.5781,-10.7207 a 1.0001,1.0001 0 0 0 -1,0 z m 0.5,2.02148 16.5761,9.56446 -16.5761,9.5664 L 5,63.086108 Z" fill="#000000" stroke-linecap="round" stroke-linejoin="round" stroke-miterlimit="10"/><path style="color:#000000;" d="m 21.5723,72.808758 a 1,1 0 0 0 -1,1 v 20.625 a 1,1 0 0 0 1,1 1,1 0 0 0 1,-1 v -20.625 a 1,1 0 0 0 -1,-1 z" fill="#000000" stroke-linecap="round" stroke-linejoin="round" stroke-miterlimit="10"/><path style="color:#000000;" d="m 77.9258,51.504068 -18.5723,10.72071 a 1.0001,1.0001 0 0 0 -0.5,0.86523 v 21.44727 a 1.0001,1.0001 0 0 0 0.5,0.86718 l 18.5723,10.71875 a 1.0001,1.0001 0 0 0 1,0 l 18.5703,-10.71875 a 1.0001,1.0001 0 0 0 0.5,-0.86718 v -21.44727 a 1.0001,1.0001 0 0 0 -0.5,-0.86523 L 78.9258,51.504068 a 1.0001,1.0001 0 0 0 -1,0 z m 0.5,2.02149 17.5703,10.14062 v 20.29493 L 78.4258,94.103678 60.8535,83.961108 v -20.29297 z" fill="#000000" stroke-linecap="round" stroke-linejoin="round" stroke-miterlimit="10"/><path style="color:#000000;" d="m 77.9219,51.500168 -18.5723,10.7207 a 1.0001,1.0001 0 0 0 0,1.73242 l 18.5723,10.72071 a 1.0001,1.0001 0 0 0 1,0 L 97.5,63.953288 a 1.0001,1.0001 0 0 0 0,-1.73242 l -18.5781,-10.7207 a 1.0001,1.0001 0 0 0 -1,0 z m 0.5,2.02148 16.5761,9.56446 -16.5761,9.5664 -16.5723,-9.5664 z" fill="#000000" stroke-linecap="round" stroke-linejoin="round" stroke-miterlimit="10"/><path style="color:#000000;" d="m 78.4219,72.808758 a 1,1 0 0 0 -1,1 v 20.625 a 1,1 0 0 0 1,1 1,1 0 0 0 1,-1 v -20.625 a 1,1 0 0 0 -1,-1 z" fill="#000000" stroke-linecap="round" stroke-linejoin="round" stroke-miterlimit="10"/><path style="color:#000000;" d="m 21.5742,32.011888 a 1.0001,1.0001 0 0 0 -1,1 v 30.07422 a 1,1 0 0 0 1,1 1,1 0 0 0 1,-1 v -29.07422 h 17.5762 a 1,1 0 0 0 1,-1 1,1 0 0 0 -1,-1 z" fill="#000000" stroke-linecap="round" stroke-linejoin="round" stroke-miterlimit="10"/><path style="color:#000000;" d="m 59.2871,32.011888 a 1,1 0 0 0 -1,1 1,1 0 0 0 1,1 h 17.5742 v 29.07422 a 1,1 0 0 0 1,1 1,1 0 0 0 1,-1 v -30.07422 a 1.0001,1.0001 0 0 0 -1,-1 z" fill="#000000" stroke-linecap="round" stroke-linejoin="round" stroke-miterlimit="10"/><path style="color:#000000;" d="m 31.4277,79.590008 a 1,1 0 0 0 -1,1 1,1 0 0 0 1,1 H 67.793 a 1,1 0 0 0 1,-1 1,1 0 0 0 -1,-1 z" fill="#000000" stroke-linecap="round" stroke-linejoin="round" stroke-miterlimit="10"/><g transform="matrix(1.0681522,0,0,1.0681522,-1.3320557,-3.9603576)"><path d="m 61.939874,21.539581 h -27.766 c -2.201,0 -3.992,-1.791 -3.992,-3.993 V 9.4775809 c 0,-2.202 1.791,-3.993 3.992,-3.993 h 27.766 c 2.201,0 3.992,1.791 3.992,3.993 v 8.0690001 c 0,2.202 -1.791,3.993 -3.992,3.993 z m -27.766,-14.0550001 c -1.099,0 -1.992,0.895 -1.992,1.993 v 8.0690001 c 0,1.099 0.894,1.993 1.992,1.993 h 27.766 c 1.099,0 1.992,-0.895 1.992,-1.993 V 9.4775809 c 0,-1.099 -0.894,-1.993 -1.992,-1.993 z"/><path d="m 38.874874,16.621581 c -1.715,0 -3.11,-1.396 -3.11,-3.11 0,-1.714 1.396,-3.109 3.11,-3.109 1.714,0 3.109,1.395 3.109,3.109 0,1.714 -1.394,3.11 -3.109,3.11 z m 0,-4.219 c -0.612,0 -1.11,0.498 -1.11,1.109 0,0.612 0.498,1.11 1.11,1.11 0.611,0 1.109,-0.498 1.109,-1.11 10e-4,-0.611 -0.497,-1.109 -1.109,-1.109 z"/><path d="m 47.404874,14.511581 h -1.375 c -0.553,0 -1,-0.447 -1,-1 0,-0.553 0.447,-1 1,-1 h 1.375 c 0.553,0 1,0.447 1,1 0,0.553 -0.448,1 -1,1 z"/><path d="m 53.376874,14.511581 h -1.376 c -0.553,0 -1,-0.447 -1,-1 0,-0.553 0.447,-1 1,-1 h 1.376 c 0.553,0 1,0.447 1,1 0,0.553 -0.447,1 -1,1 z"/><path d="m 59.348874,14.511581 h -1.375 c -0.553,0 -1,-0.447 -1,-1 0,-0.553 0.447,-1 1,-1 h 1.375 c 0.553,0 1,0.447 1,1 0,0.553 -0.447,1 -1,1 z"/><path d="m 61.939874,35.595581 h -27.766 c -2.201,0 -3.992,-1.791 -3.992,-3.993 v -8.069 c 0,-2.202 1.791,-3.993 3.992,-3.993 h 27.766 c 2.201,0 3.992,1.791 3.992,3.993 v 8.069 c 0,2.202 -1.791,3.993 -3.992,3.993 z m -27.766,-14.056 c -1.099,0 -1.992,0.895 -1.992,1.993 v 8.069 c 0,1.099 0.894,1.993 1.992,1.993 h 27.766 c 1.099,0 1.992,-0.895 1.992,-1.993 v -8.069 c 0,-1.099 -0.894,-1.993 -1.992,-1.993 z"/><path d="m 38.874874,30.677581 c -1.715,0 -3.11,-1.396 -3.11,-3.11 0,-1.714 1.396,-3.109 3.11,-3.109 1.714,0 3.109,1.395 3.109,3.109 0,1.714 -1.394,3.11 -3.109,3.11 z m 0,-4.22 c -0.612,0 -1.11,0.498 -1.11,1.109 0,0.612 0.498,1.11 1.11,1.11 0.611,0 1.109,-0.498 1.109,-1.11 10e-4,-0.611 -0.497,-1.109 -1.109,-1.109 z"/><path d="m 47.404874,28.567581 h -1.375 c -0.553,0 -1,-0.447 -1,-1 0,-0.553 0.447,-1 1,-1 h 1.375 c 0.553,0 1,0.447 1,1 0,0.553 -0.448,1 -1,1 z"/><path d="m 53.376874,28.567581 h -1.376 c -0.553,0 -1,-0.447 -1,-1 0,-0.553 0.447,-1 1,-1 h 1.376 c 0.553,0 1,0.447 1,1 0,0.553 -0.447,1 -1,1 z"/><path d="m 59.348874,28.567581 h -1.375 c -0.553,0 -1,-0.447 -1,-1 0,-0.553 0.447,-1 1,-1 h 1.375 c 0.553,0 1,0.447 1,1 0,0.553 -0.447,1 -1,1 z"/><path d="m 61.939874,49.651581 h -27.766 c -2.201,0 -3.992,-1.791 -3.992,-3.993 v -8.069 c 0,-2.202 1.791,-3.993 3.992,-3.993 h 27.766 c 2.201,0 3.992,1.791 3.992,3.993 v 8.069 c 0,2.202 -1.791,3.993 -3.992,3.993 z m -27.766,-14.056 c -1.099,0 -1.992,0.895 -1.992,1.993 v 8.069 c 0,1.099 0.894,1.993 1.992,1.993 h 27.766 c 1.099,0 1.992,-0.895 1.992,-1.993 v -8.069 c 0,-1.099 -0.894,-1.993 -1.992,-1.993 z"/><path d="m 38.874874,44.733581 c -1.715,0 -3.11,-1.396 -3.11,-3.11 0,-1.714 1.396,-3.11 3.11,-3.11 1.714,0 3.109,1.396 3.109,3.11 0,1.714 -1.394,3.11 -3.109,3.11 z m 0,-4.221 c -0.612,0 -1.11,0.498 -1.11,1.11 0,0.612 0.498,1.11 1.11,1.11 0.611,0 1.109,-0.498 1.109,-1.11 0,-0.612 -0.497,-1.11 -1.109,-1.11 z"/><path d="m 47.404874,42.622581 h -1.375 c -0.553,0 -1,-0.447 -1,-1 0,-0.553 0.447,-1 1,-1 h 1.375 c 0.553,0 1,0.447 1,1 0,0.553 -0.448,1 -1,1 z"/><path d="m 53.376874,42.622581 h -1.376 c -0.553,0 -1,-0.447 -1,-1 0,-0.553 0.447,-1 1,-1 h 1.376 c 0.553,0 1,0.447 1,1 0,0.553 -0.447,1 -1,1 z"/><path d="m 59.348874,42.622581 h -1.375 c -0.553,0 -1,-0.447 -1,-1 0,-0.553 0.447,-1 1,-1 h 1.375 c 0.553,0 1,0.447 1,1 0,0.553 -0.447,1 -1,1 z"/></g><text x="0" y="115" fill="#000000" font-size="5px" font-weight="bold" font-family="'Helvetica Neue', Helvetica, Arial-Unicode, Arial, Sans-serif">Created by Soapi</text><text x="0" y="120" fill="#000000" font-size="5px" font-weight="bold" font-family="'Helvetica Neue', Helvetica, Arial-Unicode, Arial, Sans-serif">from the Noun Project</text></svg>