<svg xmlns="http://www.w3.org/2000/svg" xmlns:xlink="http://www.w3.org/1999/xlink" version="1.1" x="0px" y="0px" viewBox="0 0 67 83.75" enable-background="new 0 0 67 67" xml:space="preserve"><g><path d="M30.5,23.2l2.6-1.5c0.5-0.3,0.7-0.9,0.4-1.4c-0.3-0.5-0.9-0.7-1.4-0.4l-2.6,1.5c-0.5,0.3-0.7,0.9-0.4,1.4   C29.4,23.3,30,23.4,30.5,23.2z"/><path d="M17.8,29.1c-0.3-0.5-0.9-0.7-1.4-0.4l-2.6,1.5c-0.5,0.3-0.7,0.9-0.4,1.4c0.3,0.5,0.9,0.7,1.4,0.4l2.6-1.5   C17.9,30.2,18.1,29.6,17.8,29.1z"/><path d="M25.3,26.1l2.6-1.5c0.5-0.3,0.7-0.9,0.4-1.4c-0.3-0.5-0.9-0.7-1.4-0.4l-2.6,1.5c-0.5,0.3-0.7,0.9-0.4,1.4   C24.2,26.2,24.8,26.4,25.3,26.1z"/><path d="M20,29l2.6-1.5c0.5-0.3,0.7-0.9,0.4-1.4c-0.3-0.5-0.9-0.7-1.4-0.4l-2.6,1.5c-0.5,0.3-0.7,0.9-0.4,1.4   C19,29.1,19.6,29.3,20,29z"/><path d="M35.8,20.2l2.6-1.5c0.5-0.3,0.7-0.9,0.4-1.4c-0.3-0.5-0.9-0.7-1.4-0.4l-2.6,1.5c-0.5,0.3-0.7,0.9-0.4,1.4   C34.7,20.3,35.3,20.5,35.8,20.2z"/><path d="M41,17.3l1.7-0.9c0,0.1,0,0.1,0,0.2l1.1,2.8c0.2,0.5,0.8,0.8,1.3,0.6c0.5-0.2,0.8-0.8,0.6-1.3l-1.1-2.8   c-0.1-0.2-0.3-0.4-0.5-0.5c0.1-0.2,0.1-0.5,0-0.7c0,0,0.1,0,0.1,0c0.3,0,0.6-0.1,0.8-0.4l1.7-2.5c0.3-0.5,0.2-1.1-0.2-1.4   s-1.1-0.2-1.4,0.2L43.3,13c-0.2,0.3-0.2,0.7-0.1,1c-0.2,0-0.4,0-0.6,0.1L40,15.6c-0.5,0.3-0.7,0.9-0.4,1.4   C39.9,17.4,40.5,17.6,41,17.3z"/><path d="M36.7,38.8l2.6-1.5c0.5-0.3,0.6-0.9,0.4-1.4c-0.3-0.5-0.9-0.7-1.4-0.4l-2.6,1.5c-0.5,0.3-0.6,0.9-0.4,1.4   C35.7,38.9,36.3,39.1,36.7,38.8z"/><path d="M26.3,44.8l2.6-1.5c0.5-0.3,0.6-0.9,0.4-1.4c-0.3-0.5-0.9-0.7-1.4-0.4L25.3,43c-0.5,0.3-0.6,0.9-0.4,1.4   C25.2,44.9,25.8,45,26.3,44.8z"/><path d="M31.5,41.8l2.6-1.5c0.5-0.3,0.6-0.9,0.4-1.4c-0.3-0.5-0.9-0.7-1.4-0.4l-2.6,1.5c-0.5,0.3-0.6,0.9-0.4,1.4   C30.4,41.9,31,42.1,31.5,41.8z"/><path d="M42,35.9l2.6-1.5c0.5-0.3,0.6-0.9,0.4-1.4c-0.3-0.5-0.9-0.7-1.4-0.4L41,34.1c-0.5,0.3-0.6,0.9-0.4,1.4   C40.9,36,41.5,36.2,42,35.9z"/><path d="M47.2,32.9l2.6-1.5c0.5-0.3,0.7-0.9,0.3-1.4c-0.1-0.4,0.1,0.3-1.1-3c-0.2-0.5-0.8-0.8-1.3-0.6c-0.5,0.2-0.8,0.8-0.6,1.3   l1,2.4l-1.9,1c-0.5,0.3-0.6,0.9-0.4,1.4C46.1,33,46.7,33.2,47.2,32.9z"/><path d="M12.3,50.4l-2.6,1.5c-0.5,0.3-0.6,0.9-0.4,1.4c0.3,0.5,0.9,0.6,1.4,0.4l2.6-1.5c0.5-0.3,0.6-0.9,0.4-1.4   C13.4,50.3,12.7,50.1,12.3,50.4z"/><path d="M18.8,47.8c-0.3-0.5-0.9-0.6-1.4-0.4l-2.6,1.5c-0.5,0.3-0.6,0.9-0.4,1.4c0.3,0.5,0.9,0.6,1.4,0.4l2.6-1.5   C18.9,48.9,19.1,48.3,18.8,47.8z"/><path d="M66.5,28.9c0-0.1,0-0.1,0-0.2L61,13c0,0,0-0.1,0-0.1c0,0,0,0,0-0.1c0,0,0,0,0-0.1c0-0.1-0.1-0.1-0.2-0.2   c0,0-0.1-0.1-0.1-0.1c0,0,0,0,0,0l-10.8-7c-0.3-0.2-0.8-0.2-1,0L7.2,29.7c0,0,0,0,0,0C7.1,29.8,7,29.9,6.9,30l-6.2,7.6   c-0.2,0.3-0.3,0.7-0.2,1l6.2,15.9c0.1,0.2,0.2,0.4,0.4,0.5l9.9,6.6c0.3,0.2,0.7,0.2,1.1,0L59.6,38c0,0,0,0,0,0   c0.1-0.1,0.2-0.1,0.3-0.2c0,0,0,0,0.1-0.1c0,0,0-0.1,0.1-0.1c0.4-0.6,4.1-5.1,6.3-7.9c0,0,0,0,0,0c0,0,0,0,0,0   c0.1-0.1,0.1-0.2,0.1-0.3c0,0,0,0,0-0.1C66.5,29.2,66.5,29.1,66.5,28.9C66.5,28.9,66.5,28.9,66.5,28.9z M24.1,44.9   c-0.3-0.5-0.9-0.6-1.4-0.4l-0.6,0.4l-2.9-8l25.9-14.2l0.9,2.3c0.2,0.5,0.8,0.8,1.3,0.6c0.5-0.2,0.8-0.8,0.6-1.3l-1-2.5l12.7-7   l4.7,13.9l-9.4,5.3c0-0.4-0.1-0.7-0.4-0.9c-0.9-0.6-1.7-1.2-2.5-1.7c-0.5-0.3-1.1-0.2-1.4,0.3c-0.3,0.5-0.2,1.1,0.3,1.4   c0.7,0.5,1.6,1.1,2.5,1.7c0,0,0.1,0.1,0.2,0.1L24.3,51l-1.5-4.2l0.9-0.5C24.2,46,24.3,45.3,24.1,44.9z M12.6,32.3   c-0.2-0.6-0.7-0.8-1.2-0.7l-1.8-1L46.6,9c0.1,0.2,0.2,0.4,0.4,0.5c0.5,0.3,1.1,0.2,1.4-0.2l1.2-1.7l8.6,5.6L18,35.3L12.6,32.3z    M24.4,53.2l31-17.4c0.1,0.2,0.2,0.3,0.3,0.4c0.5,0.3,0.9,0.6,1.3,0.8L21.2,57.5L24.4,53.2z M58.8,35.8c-0.3-0.2-0.8-0.5-1.5-1   l4.2-2.3C60,34.2,59.3,35.2,58.8,35.8z M2.6,38.4l0.6-0.7C3.6,37.9,4,38,4.3,37.8l2.6-1.5C7.4,36,7.6,35.4,7.3,35   c-0.3-0.5-0.9-0.7-1.4-0.4l-0.4,0.2l2.4-2.9l1.4,0.8l-0.8,0.4c-0.5,0.3-0.7,0.9-0.4,1.4c0.3,0.5,0.9,0.7,1.4,0.4l1.8-1l5.7,3.3   l3.2,8.7L20.1,46c-0.5,0.3-0.6,0.9-0.4,1.4c0.2,0.4,0.8,0.6,1.3,0.4l1.6,4.5l-5.4,7.1l-8.8-5.9L2.6,38.4z"/></g><text x="0" y="82" fill="#000000" font-size="5px" font-weight="bold" font-family="'Helvetica Neue', Helvetica, Arial-Unicode, Arial, Sans-serif">Created by ProSymbols</text><text x="0" y="87" fill="#000000" font-size="5px" font-weight="bold" font-family="'Helvetica Neue', Helvetica, Arial-Unicode, Arial, Sans-serif">from the Noun Project</text></svg>