<svg xmlns="http://www.w3.org/2000/svg" data-name="Layer 4" viewBox="0 0 512 640" x="0px" y="0px"><path d="M207.31,334.58a3,3,0,0,0,1.43,5.64,2.91,2.91,0,0,0,1.42-.36,3,3,0,0,0-2.85-5.28Z"/><path d="M220.66,327.37a3,3,0,0,0,1.43,5.65,3.05,3.05,0,0,0,1.42-.36,3,3,0,0,0-2.85-5.29Z"/><path d="M194,341.79a3,3,0,0,0,1.42,5.64,3.06,3.06,0,0,0,1.43-.36,3,3,0,0,0-2.85-5.28Z"/><path d="M238.07,321.38a3,3,0,1,0-2.63,4.43,2.91,2.91,0,0,0,1.42-.36A3,3,0,0,0,238.07,321.38Z"/><path d="M127.2,377.81a3,3,0,0,0,1.43,5.64,2.91,2.91,0,0,0,1.42-.36,3,3,0,1,0-2.85-5.28Z"/><path d="M153.91,363.4a3,3,0,0,0,1.42,5.64,2.91,2.91,0,0,0,1.42-.36,3,3,0,0,0-2.84-5.28Z"/><path d="M180.61,349a3,3,0,0,0,1.42,5.64,3,3,0,1,0-1.42-5.64Z"/><path d="M140.55,370.61a3,3,0,0,0,1.43,5.64,3.09,3.09,0,0,0,1.43-.36,3,3,0,1,0-2.86-5.28Z"/><path d="M167.26,356.2a3,3,0,0,0,1.42,5.64,3.09,3.09,0,0,0,1.43-.36,3,3,0,0,0-2.85-5.28Z"/><path d="M297.23,333.25a3,3,0,1,0,1.22,4.07A3,3,0,0,0,297.23,333.25Z"/><path d="M350.64,362.08a3,3,0,1,0-2.85,5.27,2.92,2.92,0,0,0,1.42.37,3,3,0,0,0,1.43-5.64Z"/><path d="M364,369.28a3,3,0,1,0,1.21,4.07A3,3,0,0,0,364,369.28Z"/><path d="M377.34,376.48a3,3,0,1,0,1.21,4.07A3,3,0,0,0,377.34,376.48Z"/><path d="M337.29,354.87a3,3,0,1,0,1.21,4.07A3,3,0,0,0,337.29,354.87Z"/><path d="M310.59,340.46a3,3,0,1,0,1.21,4.06A3,3,0,0,0,310.59,340.46Z"/><path d="M323.94,347.67a3,3,0,1,0,1.21,4.06A3,3,0,0,0,323.94,347.67Z"/><path d="M270.53,318.84a3,3,0,0,0-2.84,5.28,2.92,2.92,0,0,0,1.42.37,3,3,0,0,0,1.42-5.65Z"/><path d="M283.88,326.05a3,3,0,0,0-2.85,5.28,3.06,3.06,0,0,0,1.43.36,3,3,0,0,0,1.42-5.64Z"/><circle cx="253.5" cy="155.05" r="3"/><circle cx="253.5" cy="185.05" r="3"/><circle cx="253.5" cy="200.05" r="3"/><circle cx="253.5" cy="215.05" r="3"/><circle cx="253.5" cy="170.05" r="3"/><circle cx="253.5" cy="245.05" r="3"/><circle cx="253.5" cy="275.05" r="3"/><circle cx="253.5" cy="260.05" r="3"/><circle cx="253.5" cy="230.05" r="3"/><path d="M477.84,431l-4.49-14.86a3,3,0,0,0-5.75,1.74l2.57,8.49L400.48,389V214.69a6.51,6.51,0,0,0-3.41-5.72L256.59,133.16l-.09,0V51.18l6.29,6.29A3,3,0,0,0,267,53.22l-11-11a3,3,0,0,0-5.1,0l-11,11a3,3,0,1,0,4.24,4.25l6.28-6.29v81.94a.2.2,0,0,0-.08,0L109.94,209a6.5,6.5,0,0,0-3.42,5.72V388.87c0,.05,0,.1,0,.15l-64.78,35.7,2.48-8.54a3,3,0,0,0-5.77-1.67l-4.32,14.91a3,3,0,0,0,0,2.93,3,3,0,0,0,2.45,1.53l15,4.33a3,3,0,0,0,1.67-5.77L44.65,430l64.78-35.69a5.33,5.33,0,0,0,.51.31l140.48,75.82a6.49,6.49,0,0,0,6.17,0l140.48-75.82a5.28,5.28,0,0,0,.56-.35l69.72,37.46-8.52,2.57a3,3,0,0,0,.87,5.87,2.91,2.91,0,0,0,.87-.13l14.91-4.5a3,3,0,0,0,2.36-4.48ZM253.5,146.26l126.8,68.43L253.5,283.12,126.71,214.69Zm-134,79.32L247,294.38V453.79L119.52,385ZM260,453.79V294.38l127.48-68.8V385Z"/><text x="0" y="527" fill="#000000" font-size="5px" font-weight="bold" font-family="'Helvetica Neue', Helvetica, Arial-Unicode, Arial, Sans-serif">Created by Aman</text><text x="0" y="532" fill="#000000" font-size="5px" font-weight="bold" font-family="'Helvetica Neue', Helvetica, Arial-Unicode, Arial, Sans-serif">from the Noun Project</text></svg>