<svg xmlns="http://www.w3.org/2000/svg" xmlns:xlink="http://www.w3.org/1999/xlink" xml:space="preserve" version="1.1" style="shape-rendering:geometricPrecision;text-rendering:geometricPrecision;image-rendering:optimizeQuality;" viewBox="0 0 333.33 416.66249999999997" x="0px" y="0px" fill-rule="evenodd" clip-rule="evenodd"><defs><style type="text/css">
   
    .fil0 {fill:black;fill-rule:nonzero}
   
  </style></defs><g><path class="fil0" d="M140.59 70.81c-33.67,0 -64.15,13.65 -86.22,35.71 -22.07,22.06 -35.71,52.55 -35.71,86.22 0,33.67 13.65,64.15 35.71,86.22 22.06,22.07 52.55,35.71 86.22,35.71 33.67,0 64.16,-13.65 86.22,-35.71 22.06,-22.06 35.71,-52.55 35.71,-86.22 0,-33.67 -13.65,-64.16 -35.71,-86.22 -22.06,-22.06 -52.55,-35.71 -86.22,-35.71zm-7.65 27.18c0,-4.22 3.43,-7.65 7.65,-7.65 4.23,0 7.66,3.43 7.66,7.65l0 74.17c0,3.56 1.45,6.79 3.8,9.13 2.34,2.34 5.57,3.8 9.13,3.8l34.3 0c4.23,0 7.66,3.43 7.66,7.66 0,4.23 -3.43,7.65 -7.66,7.65l-34.3 0c-7.78,0 -14.84,-3.17 -19.95,-8.28 -5.11,-5.11 -8.28,-12.17 -8.28,-19.95l0 -74.17zm197.04 94.76c0,4.23 -3.43,7.65 -7.65,7.65 -4.23,0 -7.66,-3.43 -7.66,-7.65 0,-48.07 -19.48,-91.59 -50.98,-123.09 -31.5,-31.5 -75.02,-50.98 -123.09,-50.98 -4.23,0 -7.65,-3.43 -7.65,-7.66 0,-4.22 3.43,-7.65 7.65,-7.65 52.3,0 99.65,21.2 133.92,55.47 34.28,34.27 55.47,81.62 55.47,133.92zm-286.43 -97.04c24.84,-24.83 59.15,-40.2 97.04,-40.2 37.9,0 72.21,15.36 97.04,40.2 24.84,24.83 40.2,59.15 40.2,97.04 0,37.9 -15.36,72.2 -40.2,97.04 -24.83,24.83 -59.15,40.2 -97.04,40.2 -37.89,0 -72.2,-15.36 -97.04,-40.2 -24.83,-24.84 -40.2,-59.15 -40.2,-97.04 0,-37.9 15.36,-72.21 40.2,-97.04z"/></g><text x="0" y="348.33" fill="#000000" font-size="5px" font-weight="bold" font-family="'Helvetica Neue', Helvetica, Arial-Unicode, Arial, Sans-serif">Created by YANDI RS</text><text x="0" y="353.33" fill="#000000" font-size="5px" font-weight="bold" font-family="'Helvetica Neue', Helvetica, Arial-Unicode, Arial, Sans-serif">from the Noun Project</text></svg>